<svg width="311" height="177" viewBox="0 0 311 177" fill="none" xmlns="http://www.w3.org/2000/svg">
<path d="M311 153.66C311 126.046 288.614 103.66 261 103.66L207.33 103.66V207.33H311V153.66Z" fill="#377CC8"/>
<path d="M257.33 -0.0100098C229.716 -0.0100098 207.33 22.3757 207.33 49.99L207.33 103.66L261 103.66C288.614 103.66 311 81.2742 311 53.66V-0.0100098L257.33 -0.0100098Z" fill="#FF3B30"/>
<rect x="207.33" y="207.33" width="103.67" height="103.67" transform="rotate(-180 207.33 207.33)" fill="#EED868"/>
<path d="M207.33 53.6599C207.33 81.2741 184.944 103.66 157.33 103.66H153.663C126.049 103.66 103.663 81.2742 103.663 53.6599V-0.0100861H207.33V53.6599Z" fill="#469B88"/>
<path d="M103.66 103.66H49.9901C22.3758 103.66 -0.00996399 126.046 -0.00996399 153.66L-0.00996399 207.33H103.66L103.66 103.66Z" fill="#EED868"/>
<rect x="103.66" y="103.66" width="103.67" height="103.67" rx="51.835" transform="rotate(-180 103.66 103.66)" fill="#377CC8"/>
</svg>
