<svg width="311" height="312" viewBox="0 0 311 312" fill="none" xmlns="http://www.w3.org/2000/svg">
<g clip-path="url(#clip0_28_465)">
<path d="M207.333 257.83C207.333 230.216 229.719 207.83 257.333 207.83L261 207.83C288.614 207.83 311 230.216 311 257.83V311.5H207.333L207.333 257.83Z" fill="#E0533D"/>
<path d="M311 154.16C311 126.546 288.614 104.16 261 104.16H207.33V207.83H311V154.16Z" fill="#377CC8"/>
<path d="M257.33 0.48999C229.716 0.48999 207.33 22.8757 207.33 50.49V104.16H261C288.614 104.16 311 81.7742 311 54.16V0.48999L257.33 0.48999Z" fill="#E78C9D"/>
<rect x="207.33" y="311.5" width="103.67" height="103.67" rx="51.835" transform="rotate(180 207.33 311.5)" fill="#9DA7D0"/>
<rect x="207.33" y="207.83" width="103.67" height="103.67" transform="rotate(180 207.33 207.83)" fill="#EED868"/>
<path d="M207.33 54.1599C207.33 81.7741 184.944 104.16 157.33 104.16H153.663C126.049 104.16 103.663 81.7742 103.663 54.1599V0.489914L207.33 0.489914L207.33 54.1599Z" fill="#469B88"/>
<path d="M103.66 311.5H49.9901C22.3758 311.5 -0.00996399 289.114 -0.00996399 261.5V207.83H103.66V311.5Z" fill="#469B88"/>
<path d="M103.66 104.16H49.9901C22.3758 104.16 -0.00996399 126.546 -0.00996399 154.16V207.83H103.66V104.16Z" fill="#EED868"/>
<rect x="103.66" y="104.16" width="103.67" height="103.67" rx="51.835" transform="rotate(180 103.66 104.16)" fill="#377CC8"/>
</g>
<defs>
<clipPath id="clip0_28_465">
<rect x="311" y="311.5" width="311" height="311" rx="1" transform="rotate(180 311 311.5)" fill="white"/>
</clipPath>
</defs>
</svg>
