<svg width="312" height="311" viewBox="0 0 312 311" fill="none" xmlns="http://www.w3.org/2000/svg">
<g clip-path="url(#clip0_28_522)">
<path d="M257.83 103.667C230.216 103.667 207.83 81.281 207.83 53.6667L207.83 50.0001C207.83 22.3858 230.216 8.39233e-05 257.83 8.39233e-05L311.5 8.39233e-05V103.667L257.83 103.667Z" fill="#E0533D"/>
<path d="M154.16 0C126.546 0 104.16 22.3858 104.16 50V103.67H207.83V0H154.16Z" fill="#377CC8"/>
<path d="M0.48999 53.6699C0.48999 81.2841 22.8757 103.67 50.49 103.67H104.16V50C104.16 22.3857 81.7742 -7.62939e-05 54.16 -7.62939e-05H0.48999L0.48999 53.6699Z" fill="#E78C9D"/>
<rect x="311.5" y="103.67" width="103.67" height="103.67" rx="51.835" transform="rotate(90 311.5 103.67)" fill="#9DA7D0"/>
<rect x="207.83" y="103.67" width="103.67" height="103.67" transform="rotate(90 207.83 103.67)" fill="#EED868"/>
<path d="M54.16 103.67C81.7742 103.67 104.16 126.056 104.16 153.67V157.337C104.16 184.951 81.7742 207.337 54.16 207.337H0.490005L0.490005 103.67H54.16Z" fill="#469B88"/>
<path d="M311.5 207.34V261.01C311.5 288.624 289.114 311.01 261.5 311.01H207.83V207.34H311.5Z" fill="#469B88"/>
<path d="M104.16 207.34V261.01C104.16 288.624 126.546 311.01 154.16 311.01H207.83V207.34H104.16Z" fill="#E78C9D"/>
<rect x="104.16" y="207.34" width="103.67" height="103.67" rx="51.835" transform="rotate(90 104.16 207.34)" fill="#377CC8"/>
</g>
<defs>
<clipPath id="clip0_28_522">
<rect x="311.5" width="311" height="311" rx="1" transform="rotate(90 311.5 0)" fill="white"/>
</clipPath>
</defs>
</svg>
