<svg width="311" height="312" viewBox="0 0 311 312" fill="none" xmlns="http://www.w3.org/2000/svg">
<g clip-path="url(#clip0_14_1062)">
<path d="M103.667 54.1699C103.667 81.7841 81.2809 104.17 53.6666 104.17H49.9999C22.3857 104.17 -3.8147e-05 81.7842 -3.8147e-05 54.1699L-3.8147e-05 0.499924L103.667 0.499924L103.667 54.1699Z" fill="#E0533D"/>
<path d="M0 157.84C0 185.454 22.3858 207.84 50 207.84H103.67V104.17H0V157.84Z" fill="#377CC8"/>
<path d="M53.67 311.51C81.2843 311.51 103.67 289.124 103.67 261.51V207.84H50.0001C22.3858 207.84 4.57764e-05 230.226 4.57764e-05 257.84V311.51H53.67Z" fill="#E78C9D"/>
<rect x="103.67" y="0.5" width="103.67" height="103.67" rx="51.835" fill="#9DA7D0"/>
<rect x="103.67" y="104.17" width="103.67" height="103.67" fill="#EED868"/>
<path d="M103.67 257.84C103.67 230.226 126.056 207.84 153.67 207.84H157.337C184.951 207.84 207.337 230.226 207.337 257.84V311.51H103.67V257.84Z" fill="#469B88"/>
<path d="M207.34 0.5H261.01C288.624 0.5 311.01 22.8858 311.01 50.5V104.17H207.34V0.5Z" fill="#469B88"/>
<path d="M207.34 207.84H261.01C288.624 207.84 311.01 185.454 311.01 157.84V104.17H207.34V207.84Z" fill="#EED868"/>
<rect x="207.34" y="207.84" width="103.67" height="103.67" rx="51.835" fill="#377CC8"/>
</g>
<defs>
<clipPath id="clip0_14_1062">
<rect y="0.5" width="311" height="311" rx="1" fill="white"/>
</clipPath>
</defs>
</svg>
